<?xml version="1.0" encoding="UTF-8"?>
<svg width="64px" height="64px" viewBox="0 0 64 64" version="1.1" xmlns="http://www.w3.org/2000/svg" xmlns:xlink="http://www.w3.org/1999/xlink">
    <!-- Generator: Sketch 51.3 (57544) - http://www.bohemiancoding.com/sketch -->
    <title>Rectangle</title>
    <desc>Created with Sketch.</desc>
    <defs></defs>
    <g id="Page-1" stroke="none" stroke-width="1" fill="none" fill-rule="evenodd">
        <rect id="Rectangle" fill="#0274BC" x="0" y="0" width="64" height="64"></rect>
        <g id="Group" transform="translate(8.000000, 4.000000)" fill="#FFFFFF" fill-rule="nonzero">
            <g id="Arrow-2">
                <path d="M9.4321057,1.6 L7.99999999,1.6 L7.99999999,0 L9.4321057,1.6 Z M7.99999999,2.66666667 L10.3868428,2.66666667 L11.34158,3.73333333 L7.99999999,3.73333333 L7.99999999,2.66666667 Z M7.99999999,4.8 L12.2963171,4.8 L13.2510542,5.86666666 L7.99999999,5.86666666 L7.99999999,4.8 Z M7.99999999,6.93333333 L14.2057914,6.93333333 L15.1605285,7.99999999 L7.99999999,7.99999999 L7.99999999,6.93333333 Z M7.99999999,9.06666666 L16.1152656,9.06666666 L17.0700027,10.1333333 L7.99999999,10.1333333 L7.99999999,9.06666666 Z M7.99999999,11.2 L18.0247399,11.2 L18.979477,12.2666667 L7.99999999,12.2666667 L7.99999999,11.2 Z M7.99999999,13.3333333 L19.9342141,13.3333333 L20.8889512,14.4 L7.99999999,14.4 L7.99999999,13.3333333 Z M-1.77635684e-15,15.4666666 L16.143747,15.4666666 L15.3681033,16.5333333 L-1.77635684e-15,16.5333333 L-1.77635684e-15,15.4666666 Z M-1.77635684e-15,17.5999999 L14.5924596,17.5999999 L13.8168159,18.6666666 L-1.77635684e-15,18.6666666 L-1.77635684e-15,17.5999999 Z M-1.19949929e-24,19.7333334 L13.0411723,19.7333334 L12.2666667,20.7984349 L25.6526997,20.7984349 L6.66133814e-16,20.8 L-1.19949929e-24,19.7333334 Z M-1.77635684e-15,21.8666667 L24.7005365,21.8666667 L23.7497684,22.9333333 L-1.77635684e-15,22.9333333 L-1.77635684e-15,21.8666667 Z M-1.77635684e-15,24 L22.7990001,24 L21.8482319,25.0666666 L-1.77635684e-15,25.0666666 L-1.77635684e-15,24 Z M-3.55271368e-15,26.1333333 L20.8974636,26.1333333 L19.9466953,27.1999999 L-3.55271368e-15,27.1999999 L-3.55271368e-15,26.1333333 Z M-1.19949929e-24,28.2666666 L18.9959271,28.2666666 L18.0451588,29.3333334 L7.99999999,29.3333334 L7.99999999,28.2789388 L6.66133814e-16,28.2789388 L-1.19949929e-24,28.2666666 Z M7.99999999,30.4 L17.0943906,30.4 L16.1436223,31.4666667 L7.99999999,31.4666667 L7.99999999,30.4 Z M7.99999999,32.5333333 L15.1928541,32.5333333 L14.2420859,33.6 L7.99999999,33.6 L7.99999999,32.5333333 Z M7.99999999,34.6666666 L13.2913177,34.6666666 L12.3405495,35.7333333 L7.99999999,35.7333333 L7.99999999,34.6666666 Z M7.99999999,36.7999999 L11.3897812,36.7999999 L10.439013,37.8666666 L7.99999999,37.8666666 L7.99999999,36.7999999 Z M7.99999999,38.9333334 L9.48824476,38.9333334 L8.0620924,40.5333333 L7.99999999,40.5333333 L7.99999999,38.9333334 Z" id="Combined-Shape"></path>
            </g>
            <g id="Arrow-1" transform="translate(34.500000, 34.500000) rotate(180.000000) translate(-34.500000, -34.500000) translate(21.000000, 13.500000)">
                <path d="M9.4321057,1.6 L7.99999999,1.6 L7.99999999,0 L9.4321057,1.6 Z M7.99999999,2.66666667 L10.3868428,2.66666667 L11.34158,3.73333333 L7.99999999,3.73333333 L7.99999999,2.66666667 Z M7.99999999,4.8 L12.2963171,4.8 L13.2510542,5.86666666 L7.99999999,5.86666666 L7.99999999,4.8 Z M7.99999999,6.93333333 L14.2057914,6.93333333 L15.1605285,7.99999999 L7.99999999,7.99999999 L7.99999999,6.93333333 Z M7.99999999,9.06666666 L16.1152656,9.06666666 L17.0700027,10.1333333 L7.99999999,10.1333333 L7.99999999,9.06666666 Z M7.99999999,11.2 L18.0247399,11.2 L18.979477,12.2666667 L7.99999999,12.2666667 L7.99999999,11.2 Z M7.99999999,13.3333333 L19.9342141,13.3333333 L20.8889512,14.4 L7.99999999,14.4 L7.99999999,13.3333333 Z M-1.77635684e-15,15.4666666 L16.143747,15.4666666 L15.3681033,16.5333333 L-1.77635684e-15,16.5333333 L-1.77635684e-15,15.4666666 Z M-5.99749647e-25,17.5999999 L14.5924596,17.5999999 L13.8168159,18.6666666 L6.66133814e-16,18.6666666 L-5.99749647e-25,17.5999999 Z M-5.99749647e-25,19.7333334 L13.0411723,19.7333334 L12.2666667,20.7984349 L25.6526997,20.7984349 L6.66133814e-16,20.8 L-5.99749647e-25,19.7333334 Z M-5.99749647e-25,21.8666667 L24.7005364,21.8666667 L23.7497683,22.9333333 L6.66133814e-16,22.9333333 L-5.99749647e-25,21.8666667 Z M-5.99749647e-25,24 L22.7990001,24 L21.8482318,25.0666666 L6.66133814e-16,25.0666666 L-5.99749647e-25,24 Z M-1.77635684e-15,26.1333333 L20.8974636,26.1333333 L19.9466953,27.1999999 L-1.77635684e-15,27.1999999 L-1.77635684e-15,26.1333333 Z M-5.99749647e-25,28.2666666 L18.9959271,28.2666666 L18.0451588,29.3333334 L7.99999999,29.3333334 L7.99999999,28.2789388 L6.66133814e-16,28.2789388 L-5.99749647e-25,28.2666666 Z M7.99999999,30.4 L17.0943906,30.4 L16.1436223,31.4666667 L7.99999999,31.4666667 L7.99999999,30.4 Z M7.99999999,32.5333333 L15.1928541,32.5333333 L14.2420859,33.6 L7.99999999,33.6 L7.99999999,32.5333333 Z M7.99999999,34.6666666 L13.2913177,34.6666666 L12.3405495,35.7333333 L7.99999999,35.7333333 L7.99999999,34.6666666 Z M7.99999999,36.7999999 L11.3897812,36.7999999 L10.439013,37.8666666 L7.99999999,37.8666666 L7.99999999,36.7999999 Z M7.99999999,38.9333334 L9.48824476,38.9333334 L8.0620924,40.5333333 L7.99999999,40.5333333 L7.99999999,38.9333334 Z" id="Combined-Shape"></path>
            </g>
        </g>
    </g>
</svg>