<?xml version="1.0" encoding="UTF-8"?>
<svg width="169px" height="48px" viewBox="0 0 169 48" version="1.1" xmlns="http://www.w3.org/2000/svg" xmlns:xlink="http://www.w3.org/1999/xlink">
    <!-- Generator: Sketch 51.3 (57544) - http://www.bohemiancoding.com/sketch -->
    <title>Zucchetti logo</title>
    <desc>Created with Sketch.</desc>
    <defs></defs>
    <g id="Page-1" stroke="none" stroke-width="1" fill="none" fill-rule="evenodd">
        <g id="Zucchetti-logo">
            <g id="Arrow-2" fill="#0274BC">
                <path d="M6.28807047,1.06666667 L5.33333333,1.06666667 L5.33333333,0 L6.28807047,1.06666667 Z M5.33333333,1.77777778 L6.92456189,1.77777778 L7.56105331,2.48888889 L5.33333333,2.48888889 L5.33333333,1.77777778 Z M5.33333333,3.2 L8.19754473,3.2 L8.83403616,3.91111111 L5.33333333,3.91111111 L5.33333333,3.2 Z M5.33333333,4.62222222 L9.47052758,4.62222222 L10.107019,5.33333333 L5.33333333,5.33333333 L5.33333333,4.62222222 Z M5.33333333,6.04444444 L10.7435104,6.04444444 L11.3800018,6.75555556 L5.33333333,6.75555556 L5.33333333,6.04444444 Z M5.33333333,7.46666667 L12.0164933,7.46666667 L12.6529847,8.17777778 L5.33333333,8.17777778 L5.33333333,7.46666667 Z M5.33333333,8.88888889 L13.2894761,8.88888889 L13.9259675,9.6 L5.33333333,9.6 L5.33333333,8.88888889 Z M-4.4408921e-16,10.3111111 L10.762498,10.3111111 L10.2454022,11.0222222 L-1.77635684e-15,11.0222222 L0,10.3111111 Z M-4.4408921e-16,11.7333333 L9.7283064,11.7333333 L9.21121063,12.4444444 L-1.77635684e-15,12.4444444 L0,11.7333333 Z M-4.4408921e-16,13.1555556 L8.69411485,13.1555556 L8.17777778,13.8656233 L17.1017998,13.8656233 L0,13.8666667 L0,13.1555556 Z M-4.4408921e-16,14.5777778 L16.4670243,14.5777778 L15.8331789,15.2888889 L-1.77635684e-15,15.2888889 L0,14.5777778 Z M-4.4408921e-16,16 L15.1993334,16 L14.5654879,16.7111111 L-1.77635684e-15,16.7111111 L0,16 Z M-4.4408921e-16,17.4222222 L13.9316424,17.4222222 L13.2977969,18.1333333 L-3.55271368e-15,18.1333333 L0,17.4222222 Z M-4.4408921e-16,18.8444444 L12.6639514,18.8444444 L12.0301059,19.5555556 L5.33333333,19.5555556 L5.33333333,18.8526259 L0,18.8526259 L0,18.8444444 Z M5.33333333,20.2666667 L11.3962604,20.2666667 L10.7624149,20.9777778 L5.33333333,20.9777778 L5.33333333,20.2666667 Z M5.33333333,21.6888889 L10.1285694,21.6888889 L9.49472396,22.4 L5.33333333,22.4 L5.33333333,21.6888889 Z M5.33333333,23.1111111 L8.86087847,23.1111111 L8.22703298,23.8222222 L5.33333333,23.8222222 L5.33333333,23.1111111 Z M5.33333333,24.5333333 L7.59318749,24.5333333 L6.959342,25.2444444 L5.33333333,25.2444444 L5.33333333,24.5333333 Z M5.33333333,25.9555556 L6.32549651,25.9555556 L5.37472827,27.0222222 L5.33333333,27.0222222 L5.33333333,25.9555556 Z" id="Combined-Shape"></path>
            </g>
            <g id="Arrow-1" transform="translate(23.644444, 23.466667) scale(-1, -1) translate(-23.644444, -23.466667) translate(14.933333, 9.955556)" fill="#0274BC">
                <path d="M6.28807047,1.06666667 L5.33333333,1.06666667 L5.33333333,0 L6.28807047,1.06666667 Z M5.33333333,1.77777778 L6.92456189,1.77777778 L7.56105331,2.48888889 L5.33333333,2.48888889 L5.33333333,1.77777778 Z M5.33333333,3.2 L8.19754473,3.2 L8.83403616,3.91111111 L5.33333333,3.91111111 L5.33333333,3.2 Z M5.33333333,4.62222222 L9.47052758,4.62222222 L10.107019,5.33333333 L5.33333333,5.33333333 L5.33333333,4.62222222 Z M5.33333333,6.04444444 L10.7435104,6.04444444 L11.3800018,6.75555556 L5.33333333,6.75555556 L5.33333333,6.04444444 Z M5.33333333,7.46666667 L12.0164933,7.46666667 L12.6529847,8.17777778 L5.33333333,8.17777778 L5.33333333,7.46666667 Z M5.33333333,8.88888889 L13.2894761,8.88888889 L13.9259675,9.6 L5.33333333,9.6 L5.33333333,8.88888889 Z M-4.4408921e-16,10.3111111 L10.762498,10.3111111 L10.2454022,11.0222222 L-1.77635684e-15,11.0222222 L0,10.3111111 Z M-4.4408921e-16,11.7333333 L9.7283064,11.7333333 L9.21121063,12.4444444 L0,12.4444444 L0,11.7333333 Z M-4.4408921e-16,13.1555556 L8.69411485,13.1555556 L8.17777778,13.8656233 L17.1017998,13.8656233 L0,13.8666667 L0,13.1555556 Z M-4.4408921e-16,14.5777778 L16.4670243,14.5777778 L15.8331789,15.2888889 L0,15.2888889 L0,14.5777778 Z M-4.4408921e-16,16 L15.1993334,16 L14.5654879,16.7111111 L0,16.7111111 L0,16 Z M-4.4408921e-16,17.4222222 L13.9316424,17.4222222 L13.2977969,18.1333333 L-1.77635684e-15,18.1333333 L0,17.4222222 Z M-4.4408921e-16,18.8444444 L12.6639514,18.8444444 L12.0301059,19.5555556 L5.33333333,19.5555556 L5.33333333,18.8526259 L0,18.8526259 L0,18.8444444 Z M5.33333333,20.2666667 L11.3962604,20.2666667 L10.7624149,20.9777778 L5.33333333,20.9777778 L5.33333333,20.2666667 Z M5.33333333,21.6888889 L10.1285694,21.6888889 L9.49472396,22.4 L5.33333333,22.4 L5.33333333,21.6888889 Z M5.33333333,23.1111111 L8.86087847,23.1111111 L8.22703298,23.8222222 L5.33333333,23.8222222 L5.33333333,23.1111111 Z M5.33333333,24.5333333 L7.59318749,24.5333333 L6.959342,25.2444444 L5.33333333,25.2444444 L5.33333333,24.5333333 Z M5.33333333,25.9555556 L6.32549651,25.9555556 L5.37472827,27.0222222 L5.33333333,27.0222222 L5.33333333,25.9555556 Z" id="Combined-Shape"></path>
            </g>
            <path d="M44.017875,27.4250464 L51.0044271,13.0342119 L44.3079842,13.0342119 L44.3079842,9.9513425 L56.6666385,9.9513425 L49.6860243,24.342177 L56.9451434,24.342177 L56.9451434,27.4250464 L44.017875,27.4250464 Z M59.3820611,9.9513425 L63.0838552,9.9513425 L63.0838552,20.1001486 C63.0838552,21.8265641 63.257919,22.9569383 63.6060519,23.491305 C63.8613493,23.8859143 64.2481578,24.1859772 64.7664889,24.3915029 C65.1997209,24.5641444 65.660023,24.6504639 66.147409,24.6504639 C66.8436747,24.6504639 67.4664363,24.4942668 68.0157126,24.1818678 C68.6732968,23.8119216 69.0678415,23.1624702 69.1993583,22.2334943 C69.2767212,21.6744645 69.315402,20.9633564 69.315402,20.1001486 L69.315402,9.9513425 L72.9011524,9.9513425 L72.9011524,19.6315525 C72.9011524,21.5717147 72.835395,22.8747278 72.7038781,23.5406309 C72.1391293,26.3357798 69.9497933,27.7333333 66.1358046,27.7333333 C63.1805435,27.7333333 61.2039522,26.8948012 60.2059714,25.2177119 C59.7495306,24.4613775 59.4903689,23.3926601 59.4284786,22.0115277 C59.3975335,21.3949507 59.3820611,20.6016336 59.3820611,19.6315525 L59.3820611,9.9513425 Z M88.3001517,23.3063328 L89.3793581,26.4508597 C88.644411,26.8290269 88.0409898,27.0962062 87.5690764,27.2524057 C86.609777,27.5730257 85.4648239,27.7333333 84.1341828,27.7333333 C82.5250354,27.7333333 81.1944143,27.4867062 80.1422795,26.9934447 C78.6723852,26.3028785 77.5622449,25.2136088 76.8118252,23.7256031 C76.1387684,22.3937968 75.802245,20.7660581 75.802245,18.8423379 C75.802245,15.5950326 76.7344534,13.1369826 78.5988982,11.4681143 C79.9527482,10.2514024 81.7359352,9.64305556 83.9485129,9.64305556 C85.2559451,9.64305556 86.4898642,9.84857813 87.650307,10.2596294 C88.0525938,10.3993869 88.5554448,10.6131304 89.1588751,10.9008663 L87.9172075,13.8604209 C86.6097753,13.1040865 85.3603839,12.725925 84.1689959,12.725925 C82.7145742,12.725925 81.6044339,13.2520628 80.8385417,14.3043541 C80.033968,15.4059716 79.6316872,16.8610715 79.6316872,18.6696972 C79.6316872,20.7496169 80.1538786,22.3280302 81.1982771,23.4049847 C82.0105871,24.2353083 83.0743104,24.6504639 84.389479,24.6504639 C85.2172615,24.6504639 86.0102189,24.4819354 86.7683748,24.1448733 C87.2016068,23.9557897 87.712194,23.676279 88.3001517,23.3063328 Z M103.292998,23.3063328 L104.372204,26.4508597 C103.637257,26.8290269 103.033836,27.0962062 102.561923,27.2524057 C101.602623,27.5730257 100.45767,27.7333333 99.1270291,27.7333333 C97.5178817,27.7333333 96.1872606,27.4867062 95.1351258,26.9934447 C93.6652315,26.3028785 92.5550912,25.2136088 91.8046715,23.7256031 C91.1316147,22.3937968 90.7950913,20.7660581 90.7950913,18.8423379 C90.7950913,15.5950326 91.7272997,13.1369826 93.5917445,11.4681143 C94.9455945,10.2514024 96.7287816,9.64305556 98.9413592,9.64305556 C100.248791,9.64305556 101.48271,9.84857813 102.643153,10.2596294 C103.04544,10.3993869 103.548291,10.6131304 104.151721,10.9008663 L102.910054,13.8604209 C101.602622,13.1040865 100.35323,12.725925 99.1618422,12.725925 C97.7074206,12.725925 96.5972803,13.2520628 95.831388,14.3043541 C95.0268143,15.4059716 94.6245335,16.8610715 94.6245335,18.6696972 C94.6245335,20.7496169 95.1467249,22.3280302 96.1911235,23.4049847 C97.0034334,24.2353083 98.0671567,24.6504639 99.3823253,24.6504639 C100.210108,24.6504639 101.003065,24.4819354 101.761221,24.1448733 C102.194453,23.9557897 102.70504,23.676279 103.292998,23.3063328 Z M106.646661,27.4250464 L106.646661,9.9513425 L110.348455,9.9513425 L110.348455,16.9679533 L116.371123,16.9679533 L116.371123,9.9513425 L120.072917,9.9513425 L120.072917,27.4250464 L116.371123,27.4250464 L116.371123,20.0508227 L110.348455,20.0508227 L110.348455,27.4250464 L106.646661,27.4250464 Z M123.971986,27.4250464 L123.971986,9.9513425 L134.381106,9.9513425 L134.381106,13.0342119 L127.67378,13.0342119 L127.67378,17.0172792 L134.044579,17.0172792 L134.044579,20.1001486 L127.67378,20.1001486 L127.67378,24.342177 L134.740841,24.342177 L134.740841,27.4250464 L123.971986,27.4250464 Z M140.84474,27.4250464 L140.84474,13.0342119 L136.086948,13.0342119 L136.086948,9.9513425 L149.373952,9.9513425 L149.373952,13.0342119 L144.546534,13.0342119 L144.546534,27.4250464 L140.84474,27.4250464 Z M154.410249,27.4250464 L154.410249,13.0342119 L149.652457,13.0342119 L149.652457,9.9513425 L162.939461,9.9513425 L162.939461,13.0342119 L158.112043,13.0342119 L158.112043,27.4250464 L154.410249,27.4250464 Z M165.028248,27.4250464 L165.028248,9.9513425 L168.730042,9.9513425 L168.730042,27.4250464 L165.028248,27.4250464 Z" id="ZUCCHETTI" fill="#0274BC"></path>
            <path d="M43.0618056,43.6496528 L43.4291667,41.4774306 C44.7229231,42.0204888 45.8196714,42.2920139 46.7194444,42.2920139 C47.3050955,42.2920139 47.7363412,42.1482653 48.0131944,41.8607639 C48.252779,41.6105312 48.3725694,41.3044 48.3725694,40.9423611 C48.3725694,40.6122669 48.250117,40.3540519 48.0052083,40.1677083 C47.7602997,39.9866889 47.1879675,39.7125018 46.2881944,39.3451389 C45.4629588,39.0043964 44.9172467,38.7621535 44.6510417,38.6184028 C44.0440942,38.2829844 43.6208345,37.8916689 43.38125,37.4444444 C43.1789342,37.0664333 43.0777778,36.6192155 43.0777778,36.1027778 C43.0777778,35.2988386 43.2960626,34.5934058 43.7326389,33.9864583 C44.4034756,33.0440925 45.5055479,32.5729167 47.0388889,32.5729167 C48.1463018,32.5729167 49.3495305,32.7778915 50.6486111,33.1878472 L50.1375,35.2642361 C49.5784694,35.0565962 49.1871539,34.9208337 48.9635417,34.8569444 C48.3299737,34.6652768 47.7416694,34.5694444 47.1986111,34.5694444 C46.719442,34.5694444 46.3547466,34.6759249 46.1045139,34.8888889 C45.843633,35.1178252 45.7131944,35.4079844 45.7131944,35.759375 C45.7131944,36.0894692 45.856943,36.3503463 46.1444444,36.5420139 C46.3627326,36.6964128 46.8605285,36.9333317 47.6378472,37.2527778 C48.580213,37.6467612 49.1685173,37.9049762 49.4027778,38.0274306 C50.0842627,38.3894694 50.5421285,38.8287011 50.7763889,39.3451389 C50.9574083,39.7391223 51.0479167,40.2049742 51.0479167,40.7427083 C51.0479167,41.9566033 50.6353051,42.8749969 49.8100694,43.4979167 C49.1072882,44.0250026 48.1223443,44.2885417 46.8552083,44.2885417 C45.5188591,44.2885417 44.2544041,44.0755808 43.0618056,43.6496528 Z M55.2565972,43.7774306 L51.8305556,35.7114583 L54.4420139,35.7114583 L55.9354167,39.3690972 C56.1750012,39.9653965 56.4145821,40.606941 56.6541667,41.29375 C56.8777789,40.5856446 57.1146978,39.906832 57.3649306,39.2572917 L58.7065972,35.7114583 L61.1423611,35.7114583 L57.7722222,43.8732639 C57.3675906,44.8475743 57.0454873,45.5609931 56.8059028,46.0135417 C56.4598362,46.6524337 56.0498866,47.1156236 55.5760417,47.403125 C55.118169,47.6799782 54.5538228,47.8184028 53.8829861,47.8184028 C53.1429361,47.8184028 52.4534754,47.6932883 51.8145833,47.4430556 L52.2378472,45.5822917 C52.6637753,45.7633111 53.0417808,45.8538194 53.371875,45.8538194 C53.7818308,45.8538194 54.106596,45.7153949 54.3461806,45.4385417 C54.6283579,45.1190956 54.9318271,44.5653975 55.2565972,43.7774306 Z M61.8850694,43.5697917 L62.5159722,41.7409722 C63.2826427,42.2627341 64.0732598,42.5236111 64.8878472,42.5236111 C65.6758141,42.5236111 66.0697917,42.246762 66.0697917,41.6930556 C66.0697917,41.4321746 65.9606492,41.2378479 65.7423611,41.1100694 C65.6092586,41.0302079 65.1593788,40.8625013 64.3927083,40.6069444 C63.7591404,40.3939804 63.3278947,40.2262738 63.0989583,40.1038194 C62.3322878,39.6885396 61.9489583,39.0496571 61.9489583,38.1871528 C61.9489583,37.3246485 62.2630756,36.6538218 62.8913194,36.1746528 C63.4769705,35.7327524 64.2888837,35.5118056 65.3270833,35.5118056 C66.2215322,35.5118056 67.2197862,35.7061323 68.321875,36.0947917 L67.7309028,37.9395833 C66.8737226,37.4870348 66.0964155,37.2607639 65.3989583,37.2607639 C65.0422436,37.2607639 64.7680565,37.3353002 64.5763889,37.484375 C64.4060177,37.6174775 64.3208333,37.7931702 64.3208333,38.0114583 C64.3208333,38.2244224 64.4193277,38.389467 64.6163194,38.5065972 C64.749422,38.5864587 65.002313,38.6876151 65.375,38.8100694 C66.4930611,39.1827565 67.2384241,39.5075218 67.6111111,39.784375 C68.1754658,40.1943308 68.4576389,40.7533529 68.4576389,41.4614583 C68.4576389,42.2334529 68.1914378,42.8803215 67.6590278,43.4020833 C67.0520803,43.9930585 66.1416727,44.2885417 64.9277778,44.2885417 C63.777772,44.2885417 62.7635461,44.0489607 61.8850694,43.5697917 Z M70.8614583,37.5083333 L69.5197917,37.5083333 L69.5197917,37.154579 L72.9622396,33.4513889 L73.3291667,33.4513889 L73.3291667,35.7114583 L75.1819444,35.7114583 L75.1819444,37.5083333 L73.3291667,37.5083333 L73.3291667,40.8864583 C73.3291667,41.344331 73.3824069,41.6744203 73.4888889,41.8767361 C73.6486119,42.185534 73.9627291,42.3399306 74.43125,42.3399306 C74.6601863,42.3399306 74.9530075,42.2813663 75.3097222,42.1642361 L75.5253472,43.9850694 C74.8491864,44.1873853 74.1703738,44.2885417 73.4888889,44.2885417 C72.4613375,44.2885417 71.7346086,43.9744244 71.3086806,43.3461806 C71.1010406,43.0373827 70.9706021,42.6141231 70.9173611,42.0763889 C70.8800924,41.7249982 70.8614583,41.3283587 70.8614583,40.8864583 L70.8614583,37.5083333 Z M78.8954861,40.71875 C78.9913199,41.9219968 79.7207108,42.5236111 81.0836806,42.5236111 C81.9621572,42.5236111 82.8459446,42.249424 83.7350694,41.7010417 L84.5815972,43.45 C83.5221012,44.0090306 82.3401686,44.2885417 81.0357639,44.2885417 C79.4225614,44.2885417 78.2140086,43.8892401 77.4100694,43.090625 C76.6700194,42.3612232 76.3,41.3123911 76.3,39.9440972 C76.3,38.6343685 76.6646954,37.5695643 77.3940972,36.7496528 C78.1341472,35.9244172 79.2095994,35.5118056 80.6204861,35.5118056 C81.935539,35.5118056 82.9444409,35.8472189 83.6472222,36.5180556 C84.2807902,37.125003 84.6481476,38.0008045 84.7493056,39.1454861 C84.7865743,39.5128491 84.8052083,40.0372651 84.8052083,40.71875 L78.8954861,40.71875 Z M82.3215278,39.0975694 C82.3055555,38.6876137 82.2177091,38.3309043 82.0579861,38.0274306 C81.7811329,37.5056687 81.309957,37.2447917 80.6444444,37.2447917 C79.9895801,37.2447917 79.5077562,37.5030067 79.1989583,38.0194444 C79.0179389,38.3229182 78.9141205,38.6822896 78.8875,39.0975694 L82.3215278,39.0975694 Z M86.7538194,44.0888889 L86.7538194,38.8180556 C86.7484953,37.9821717 86.7325233,37.2208368 86.7059028,36.5340278 L86.6739583,35.7114583 L88.9420139,35.7114583 L89.0298611,36.8854167 C89.3067143,36.5553224 89.5755774,36.2971074 89.8364583,36.1107639 C90.3901648,35.7114563 91.0317093,35.5118056 91.7611111,35.5118056 C92.9057928,35.5118056 93.6830998,35.9909674 94.0930556,36.9493056 C94.4178257,36.5712944 94.7026608,36.2917833 94.9475694,36.1107639 C95.4853036,35.7114563 96.1215241,35.5118056 96.85625,35.5118056 C97.9263942,35.5118056 98.6744192,35.9084451 99.1003472,36.7017361 C99.3452559,37.1542847 99.4677083,37.8889995 99.4677083,38.9059028 L99.4677083,44.0888889 L97,44.0888889 L97,39.0895833 C97,38.5465251 96.9547458,38.1631956 96.8642361,37.9395833 C96.7045131,37.5402758 96.4090299,37.340625 95.9777778,37.340625 C95.4027749,37.340625 94.8570628,37.7798567 94.340625,38.6583333 L94.340625,44.0888889 L91.8729167,44.0888889 L91.8729167,38.8579861 C91.8729167,37.846407 91.5481514,37.340625 90.8986111,37.340625 C90.31296,37.340625 89.7539378,37.7798567 89.2215278,38.6583333 L89.2215278,44.0888889 L86.7538194,44.0888889 Z M106.647222,43.1545139 C106.349073,43.4579876 106.072223,43.6869205 105.816667,43.8413194 C105.310877,44.1394691 104.698615,44.2885417 103.979861,44.2885417 C103.128005,44.2885417 102.465164,44.0729188 101.991319,43.6416667 C101.474882,43.1678217 101.216667,42.5236152 101.216667,41.7090278 C101.216667,40.6814763 101.607982,39.9201414 102.390625,39.425 C102.928359,39.0895817 103.817471,38.921875 105.057986,38.921875 C105.457294,38.921875 105.949766,38.9405091 106.535417,38.9777778 L106.535417,38.8819444 C106.535417,38.4027754 106.399654,38.0247699 106.128125,37.7479167 C105.792707,37.4124983 105.316207,37.2447917 104.698611,37.2447917 C104.027774,37.2447917 103.250467,37.4737246 102.366667,37.9315972 L101.8875,36.1826389 C102.893755,35.7354144 103.955897,35.5118056 105.073958,35.5118056 C106.490169,35.5118056 107.536339,35.8658529 108.2125,36.5739583 C108.585187,36.9626177 108.824768,37.4683997 108.93125,38.0913194 C108.979167,38.3788209 109.003125,38.8792788 109.003125,39.5927083 L109.003125,41.9166667 L109.027083,42.6673611 C109.043056,43.3701424 109.067014,43.8439803 109.098958,44.0888889 L106.735069,44.0888889 L106.647222,43.1545139 Z M106.535417,40.3673611 C106.210647,40.3407406 105.947107,40.3274306 105.744792,40.3274306 C105.063307,40.3274306 104.573497,40.4259249 104.275347,40.6229167 C103.934605,40.8571771 103.764236,41.1979144 103.764236,41.6451389 C103.764236,41.9432885 103.852082,42.1961795 104.027778,42.4038194 C104.230094,42.6327558 104.506943,42.7472222 104.858333,42.7472222 C105.486577,42.7472222 106.045599,42.3851888 106.535417,41.6611111 L106.535417,40.3673611 Z" id="Systema" fill="#7B7A7A"></path>
        </g>
    </g>
</svg>